# xmcd CD database file
#
# Track frame offsets:
#	150
#	13699
#	37139
#	61780
#	88098
#	105106
#	130933
#	147702
#	169817
#	194948
#	214204
#
# Disc length: 3178 seconds
#
# Revision: 2
# Processed by: cddbd v1.5.2PL0 Copyright (c) Steve Scherf et al.
# Submitted via: CDex 1.70beta3
#
DISCID=a50c680b
DTITLE=高橋優 - リアルタイム・シンガーソングライター
DYEAR=1900
DGENRE=rock
TTITLE0=終焉のディープキス
TTITLE1=素晴らしき日常
TTITLE2=福笑い
TTITLE3=メロディ
TTITLE4=希望の歌
TTITLE5=靴紐
TTITLE6=サンドイッチ
TTITLE7=ほんとのきもち
TTITLE8=虹と記念日
TTITLE9=現実という名の怪物と戦う者たち
TTITLE10=少年であれ
EXTD=
EXTT0=
EXTT1=
EXTT2=
EXTT3=
EXTT4=
EXTT5=
EXTT6=
EXTT7=
EXTT8=
EXTT9=
EXTT10=
PLAYORDER=
